<svg width="41" height="35" viewBox="0 0 41 35" fill="none" xmlns="http://www.w3.org/2000/svg">
<g clip-path="url(#clip0)">
<rect width="1440" height="7499" transform="translate(-882 -4145)" fill="white"/>
<g filter="url(#filter0_d)">
<rect x="-48" y="-566" width="506" height="509" fill="#131313"/>
</g>
<g filter="url(#filter1_d)">
<circle cx="20.5" cy="17.4424" r="36" fill="#E3B873"/>
</g>
<mask id="path-3-outside-1" maskUnits="userSpaceOnUse" x="19.2026" y="23.7706" width="3" height="4" fill="black">
<rect fill="white" x="19.2026" y="23.7706" width="3" height="4"/>
<path d="M20.8396 24.7706C20.4878 24.7706 20.2026 25.0487 20.2026 25.3917V26.7163C20.2026 27.0593 20.4878 27.3373 20.8396 27.3373C21.1914 27.3373 21.4765 27.0593 21.4765 26.7163V25.3917C21.4765 25.0487 21.1914 24.7706 20.8396 24.7706Z"/>
</mask>
<path d="M20.8396 24.7706C20.4878 24.7706 20.2026 25.0487 20.2026 25.3917V26.7163C20.2026 27.0593 20.4878 27.3373 20.8396 27.3373C21.1914 27.3373 21.4765 27.0593 21.4765 26.7163V25.3917C21.4765 25.0487 21.1914 24.7706 20.8396 24.7706Z" fill="white"/>
<path d="M20.8396 24.7706C20.4878 24.7706 20.2026 25.0487 20.2026 25.3917V26.7163C20.2026 27.0593 20.4878 27.3373 20.8396 27.3373C21.1914 27.3373 21.4765 27.0593 21.4765 26.7163V25.3917C21.4765 25.0487 21.1914 24.7706 20.8396 24.7706Z" stroke="white" stroke-width="0.2" mask="url(#path-3-outside-1)"/>
<mask id="path-4-outside-2" maskUnits="userSpaceOnUse" x="-0.5" y="-0.0767822" width="42" height="35" fill="black">
<rect fill="white" x="-0.5" y="-0.0767822" width="42" height="35"/>
<path d="M40.1144 15.8723C39.8658 15.6299 39.5354 15.4965 39.1838 15.4965C39.1837 15.4965 39.1836 15.4965 39.1835 15.4965L37.5484 15.4967C37.5277 15.4967 37.5135 15.474 37.5091 15.453C37.0597 13.3036 36.0518 11.2772 34.5943 9.59292C33.1855 7.96497 31.3813 6.68467 29.3693 5.88053C29.0448 4.54478 28.3595 3.16759 27.0082 2.13234C25.6999 1.13007 24.3823 0.937202 24.3269 0.929432C24.1444 0.904067 23.959 0.957083 23.8195 1.07507C23.6799 1.19306 23.5998 1.36415 23.5998 1.54422V4.89776H21.2883C20.717 2.98661 18.9055 1.58565 16.7634 1.58565C14.5758 1.58565 12.7319 3.0464 12.2027 5.01986C9.05336 5.43812 6.15586 6.92576 4.00586 9.23872C1.74508 11.6711 0.5 14.8198 0.5 18.1048C0.5 25.4783 4.42617 31.4779 5.62961 33.1409C6.00133 33.6547 6.61016 33.9615 7.2582 33.9615H9.96922C11.0697 33.9615 11.965 33.0886 11.965 32.0156V31.156C12.651 31.259 13.348 31.3118 14.0457 31.3118H20.2028V32.0156C20.2028 33.0886 21.0981 33.9615 22.1986 33.9615H25.1765C26.1113 33.9615 26.932 33.3146 27.1279 32.4234L27.4548 30.9362C31.641 29.9422 35.0069 27.0788 36.6635 23.3629H39.1837C39.9095 23.3629 40.5 22.7872 40.5 22.0795V16.78C40.5 16.437 40.3631 16.1148 40.1144 15.8723ZM16.7633 2.82779C18.6598 2.82779 20.2027 4.33218 20.2027 6.18133C20.2027 6.65421 20.0989 7.12 19.9033 7.54755L13.6232 7.54755C13.4277 7.11984 13.3237 6.65421 13.3237 6.18133C13.3237 4.33211 14.8667 2.82779 16.7633 2.82779ZM39.2261 22.0793C39.2261 22.1022 39.2071 22.1208 39.1836 22.1208H37.1423C37.4893 21.0617 37.7028 19.9479 37.7639 18.7994C37.7822 18.4569 37.5121 18.1648 37.1608 18.147C36.8095 18.1297 36.5099 18.3925 36.4917 18.7351C36.2219 23.8075 32.6809 28.1384 27.7548 29.5707L28.6448 25.5217C28.7185 25.1864 28.4994 24.8562 28.1554 24.7844C27.8116 24.7123 27.4728 24.9262 27.3991 25.2615L25.8823 32.163C25.8114 32.4854 25.5145 32.7194 25.1765 32.7194H22.1984C21.8004 32.7194 21.4766 32.4036 21.4766 32.0156V29.3658C21.4766 29.0228 21.1914 28.7448 20.8396 28.7448C20.4878 28.7448 20.2027 29.0228 20.2027 29.3658V30.0697H14.0455C13.3467 30.0697 12.6491 30.0111 11.9648 29.8974V25.3914C11.9648 25.0484 11.6797 24.7704 11.3279 24.7704C10.9761 24.7704 10.6909 25.0484 10.6909 25.3914V32.0156C10.6909 32.4037 10.3671 32.7195 9.96906 32.7195H7.2582C7.02008 32.7195 6.80586 32.6121 6.67055 32.425C5.52187 30.8373 1.77391 25.1127 1.77391 18.1047C1.77391 15.1286 2.9018 12.2761 4.94977 10.0728C6.82398 8.0563 9.32469 6.73243 12.0519 6.29764C12.0629 6.72322 12.1345 7.14399 12.2629 7.5474H12.0074C11.6556 7.5474 11.3705 7.82542 11.3705 8.16843C11.3705 8.51143 11.6556 8.78945 12.0074 8.78945H21.5191C21.8709 8.78945 22.1561 8.51143 22.1561 8.16843C22.1561 7.82542 21.8709 7.5474 21.5191 7.5474H21.2636C21.4038 7.1072 21.4766 6.64644 21.4766 6.18118C21.4766 6.16724 21.4757 6.1536 21.4755 6.13974H23.5998V7.50596C23.5998 7.84896 23.8849 8.12699 24.2367 8.12699C24.5885 8.12699 24.8737 7.84896 24.8737 7.50596V2.35964C26.0822 2.80555 28.3556 4.17519 28.3556 8.1685C28.3556 8.5115 28.6408 8.78953 28.9926 8.78953C29.3444 8.78953 29.6295 8.5115 29.6295 8.1685C29.6295 7.9054 29.6198 7.6276 29.5974 7.34051C31.1339 8.07024 32.5123 9.11318 33.6207 10.394C34.941 11.9198 35.854 13.7549 36.2609 15.7011C36.3866 16.3025 36.9282 16.7389 37.5487 16.7388L39.1838 16.7387C39.188 16.7387 39.2013 16.7387 39.2138 16.7508C39.2262 16.7629 39.2262 16.7757 39.2262 16.78V22.0793H39.2261Z"/>
</mask>
<path d="M40.1144 15.8723C39.8658 15.6299 39.5354 15.4965 39.1838 15.4965C39.1837 15.4965 39.1836 15.4965 39.1835 15.4965L37.5484 15.4967C37.5277 15.4967 37.5135 15.474 37.5091 15.453C37.0597 13.3036 36.0518 11.2772 34.5943 9.59292C33.1855 7.96497 31.3813 6.68467 29.3693 5.88053C29.0448 4.54478 28.3595 3.16759 27.0082 2.13234C25.6999 1.13007 24.3823 0.937202 24.3269 0.929432C24.1444 0.904067 23.959 0.957083 23.8195 1.07507C23.6799 1.19306 23.5998 1.36415 23.5998 1.54422V4.89776H21.2883C20.717 2.98661 18.9055 1.58565 16.7634 1.58565C14.5758 1.58565 12.7319 3.0464 12.2027 5.01986C9.05336 5.43812 6.15586 6.92576 4.00586 9.23872C1.74508 11.6711 0.5 14.8198 0.5 18.1048C0.5 25.4783 4.42617 31.4779 5.62961 33.1409C6.00133 33.6547 6.61016 33.9615 7.2582 33.9615H9.96922C11.0697 33.9615 11.965 33.0886 11.965 32.0156V31.156C12.651 31.259 13.348 31.3118 14.0457 31.3118H20.2028V32.0156C20.2028 33.0886 21.0981 33.9615 22.1986 33.9615H25.1765C26.1113 33.9615 26.932 33.3146 27.1279 32.4234L27.4548 30.9362C31.641 29.9422 35.0069 27.0788 36.6635 23.3629H39.1837C39.9095 23.3629 40.5 22.7872 40.5 22.0795V16.78C40.5 16.437 40.3631 16.1148 40.1144 15.8723ZM16.7633 2.82779C18.6598 2.82779 20.2027 4.33218 20.2027 6.18133C20.2027 6.65421 20.0989 7.12 19.9033 7.54755L13.6232 7.54755C13.4277 7.11984 13.3237 6.65421 13.3237 6.18133C13.3237 4.33211 14.8667 2.82779 16.7633 2.82779ZM39.2261 22.0793C39.2261 22.1022 39.2071 22.1208 39.1836 22.1208H37.1423C37.4893 21.0617 37.7028 19.9479 37.7639 18.7994C37.7822 18.4569 37.5121 18.1648 37.1608 18.147C36.8095 18.1297 36.5099 18.3925 36.4917 18.7351C36.2219 23.8075 32.6809 28.1384 27.7548 29.5707L28.6448 25.5217C28.7185 25.1864 28.4994 24.8562 28.1554 24.7844C27.8116 24.7123 27.4728 24.9262 27.3991 25.2615L25.8823 32.163C25.8114 32.4854 25.5145 32.7194 25.1765 32.7194H22.1984C21.8004 32.7194 21.4766 32.4036 21.4766 32.0156V29.3658C21.4766 29.0228 21.1914 28.7448 20.8396 28.7448C20.4878 28.7448 20.2027 29.0228 20.2027 29.3658V30.0697H14.0455C13.3467 30.0697 12.6491 30.0111 11.9648 29.8974V25.3914C11.9648 25.0484 11.6797 24.7704 11.3279 24.7704C10.9761 24.7704 10.6909 25.0484 10.6909 25.3914V32.0156C10.6909 32.4037 10.3671 32.7195 9.96906 32.7195H7.2582C7.02008 32.7195 6.80586 32.6121 6.67055 32.425C5.52187 30.8373 1.77391 25.1127 1.77391 18.1047C1.77391 15.1286 2.9018 12.2761 4.94977 10.0728C6.82398 8.0563 9.32469 6.73243 12.0519 6.29764C12.0629 6.72322 12.1345 7.14399 12.2629 7.5474H12.0074C11.6556 7.5474 11.3705 7.82542 11.3705 8.16843C11.3705 8.51143 11.6556 8.78945 12.0074 8.78945H21.5191C21.8709 8.78945 22.1561 8.51143 22.1561 8.16843C22.1561 7.82542 21.8709 7.5474 21.5191 7.5474H21.2636C21.4038 7.1072 21.4766 6.64644 21.4766 6.18118C21.4766 6.16724 21.4757 6.1536 21.4755 6.13974H23.5998V7.50596C23.5998 7.84896 23.8849 8.12699 24.2367 8.12699C24.5885 8.12699 24.8737 7.84896 24.8737 7.50596V2.35964C26.0822 2.80555 28.3556 4.17519 28.3556 8.1685C28.3556 8.5115 28.6408 8.78953 28.9926 8.78953C29.3444 8.78953 29.6295 8.5115 29.6295 8.1685C29.6295 7.9054 29.6198 7.6276 29.5974 7.34051C31.1339 8.07024 32.5123 9.11318 33.6207 10.394C34.941 11.9198 35.854 13.7549 36.2609 15.7011C36.3866 16.3025 36.9282 16.7389 37.5487 16.7388L39.1838 16.7387C39.188 16.7387 39.2013 16.7387 39.2138 16.7508C39.2262 16.7629 39.2262 16.7757 39.2262 16.78V22.0793H39.2261Z" fill="white"/>
<path d="M40.1144 15.8723C39.8658 15.6299 39.5354 15.4965 39.1838 15.4965C39.1837 15.4965 39.1836 15.4965 39.1835 15.4965L37.5484 15.4967C37.5277 15.4967 37.5135 15.474 37.5091 15.453C37.0597 13.3036 36.0518 11.2772 34.5943 9.59292C33.1855 7.96497 31.3813 6.68467 29.3693 5.88053C29.0448 4.54478 28.3595 3.16759 27.0082 2.13234C25.6999 1.13007 24.3823 0.937202 24.3269 0.929432C24.1444 0.904067 23.959 0.957083 23.8195 1.07507C23.6799 1.19306 23.5998 1.36415 23.5998 1.54422V4.89776H21.2883C20.717 2.98661 18.9055 1.58565 16.7634 1.58565C14.5758 1.58565 12.7319 3.0464 12.2027 5.01986C9.05336 5.43812 6.15586 6.92576 4.00586 9.23872C1.74508 11.6711 0.5 14.8198 0.5 18.1048C0.5 25.4783 4.42617 31.4779 5.62961 33.1409C6.00133 33.6547 6.61016 33.9615 7.2582 33.9615H9.96922C11.0697 33.9615 11.965 33.0886 11.965 32.0156V31.156C12.651 31.259 13.348 31.3118 14.0457 31.3118H20.2028V32.0156C20.2028 33.0886 21.0981 33.9615 22.1986 33.9615H25.1765C26.1113 33.9615 26.932 33.3146 27.1279 32.4234L27.4548 30.9362C31.641 29.9422 35.0069 27.0788 36.6635 23.3629H39.1837C39.9095 23.3629 40.5 22.7872 40.5 22.0795V16.78C40.5 16.437 40.3631 16.1148 40.1144 15.8723ZM16.7633 2.82779C18.6598 2.82779 20.2027 4.33218 20.2027 6.18133C20.2027 6.65421 20.0989 7.12 19.9033 7.54755L13.6232 7.54755C13.4277 7.11984 13.3237 6.65421 13.3237 6.18133C13.3237 4.33211 14.8667 2.82779 16.7633 2.82779ZM39.2261 22.0793C39.2261 22.1022 39.2071 22.1208 39.1836 22.1208H37.1423C37.4893 21.0617 37.7028 19.9479 37.7639 18.7994C37.7822 18.4569 37.5121 18.1648 37.1608 18.147C36.8095 18.1297 36.5099 18.3925 36.4917 18.7351C36.2219 23.8075 32.6809 28.1384 27.7548 29.5707L28.6448 25.5217C28.7185 25.1864 28.4994 24.8562 28.1554 24.7844C27.8116 24.7123 27.4728 24.9262 27.3991 25.2615L25.8823 32.163C25.8114 32.4854 25.5145 32.7194 25.1765 32.7194H22.1984C21.8004 32.7194 21.4766 32.4036 21.4766 32.0156V29.3658C21.4766 29.0228 21.1914 28.7448 20.8396 28.7448C20.4878 28.7448 20.2027 29.0228 20.2027 29.3658V30.0697H14.0455C13.3467 30.0697 12.6491 30.0111 11.9648 29.8974V25.3914C11.9648 25.0484 11.6797 24.7704 11.3279 24.7704C10.9761 24.7704 10.6909 25.0484 10.6909 25.3914V32.0156C10.6909 32.4037 10.3671 32.7195 9.96906 32.7195H7.2582C7.02008 32.7195 6.80586 32.6121 6.67055 32.425C5.52187 30.8373 1.77391 25.1127 1.77391 18.1047C1.77391 15.1286 2.9018 12.2761 4.94977 10.0728C6.82398 8.0563 9.32469 6.73243 12.0519 6.29764C12.0629 6.72322 12.1345 7.14399 12.2629 7.5474H12.0074C11.6556 7.5474 11.3705 7.82542 11.3705 8.16843C11.3705 8.51143 11.6556 8.78945 12.0074 8.78945H21.5191C21.8709 8.78945 22.1561 8.51143 22.1561 8.16843C22.1561 7.82542 21.8709 7.5474 21.5191 7.5474H21.2636C21.4038 7.1072 21.4766 6.64644 21.4766 6.18118C21.4766 6.16724 21.4757 6.1536 21.4755 6.13974H23.5998V7.50596C23.5998 7.84896 23.8849 8.12699 24.2367 8.12699C24.5885 8.12699 24.8737 7.84896 24.8737 7.50596V2.35964C26.0822 2.80555 28.3556 4.17519 28.3556 8.1685C28.3556 8.5115 28.6408 8.78953 28.9926 8.78953C29.3444 8.78953 29.6295 8.5115 29.6295 8.1685C29.6295 7.9054 29.6198 7.6276 29.5974 7.34051C31.1339 8.07024 32.5123 9.11318 33.6207 10.394C34.941 11.9198 35.854 13.7549 36.2609 15.7011C36.3866 16.3025 36.9282 16.7389 37.5487 16.7388L39.1838 16.7387C39.188 16.7387 39.2013 16.7387 39.2138 16.7508C39.2262 16.7629 39.2262 16.7757 39.2262 16.78V22.0793H39.2261Z" stroke="white" stroke-width="0.2" mask="url(#path-4-outside-2)"/>
<mask id="path-5-outside-3" maskUnits="userSpaceOnUse" x="27.418" y="13.1718" width="7" height="4" fill="black">
<rect fill="white" x="27.418" y="13.1718" width="7" height="4"/>
<path d="M33.6658 15.9007C33.2705 14.8666 32.224 14.1718 31.0621 14.1718C29.9001 14.1718 28.8538 14.8665 28.4583 15.9007C28.3354 16.2221 28.503 16.5797 28.8326 16.6995C29.1623 16.8195 29.5291 16.6559 29.6519 16.3346C29.8625 15.7839 30.4292 15.4138 31.062 15.4138C31.6948 15.4138 32.2616 15.7839 32.4722 16.3346C32.5677 16.5845 32.8107 16.7388 33.0691 16.7388C33.143 16.7388 33.2182 16.7262 33.2915 16.6995C33.6211 16.5797 33.7887 16.222 33.6658 15.9007Z"/>
</mask>
<path d="M33.6658 15.9007C33.2705 14.8666 32.224 14.1718 31.0621 14.1718C29.9001 14.1718 28.8538 14.8665 28.4583 15.9007C28.3354 16.2221 28.503 16.5797 28.8326 16.6995C29.1623 16.8195 29.5291 16.6559 29.6519 16.3346C29.8625 15.7839 30.4292 15.4138 31.062 15.4138C31.6948 15.4138 32.2616 15.7839 32.4722 16.3346C32.5677 16.5845 32.8107 16.7388 33.0691 16.7388C33.143 16.7388 33.2182 16.7262 33.2915 16.6995C33.6211 16.5797 33.7887 16.222 33.6658 15.9007Z" fill="white"/>
<path d="M33.6658 15.9007C33.2705 14.8666 32.224 14.1718 31.0621 14.1718C29.9001 14.1718 28.8538 14.8665 28.4583 15.9007C28.3354 16.2221 28.503 16.5797 28.8326 16.6995C29.1623 16.8195 29.5291 16.6559 29.6519 16.3346C29.8625 15.7839 30.4292 15.4138 31.062 15.4138C31.6948 15.4138 32.2616 15.7839 32.4722 16.3346C32.5677 16.5845 32.8107 16.7388 33.0691 16.7388C33.143 16.7388 33.2182 16.7262 33.2915 16.6995C33.6211 16.5797 33.7887 16.222 33.6658 15.9007Z" stroke="white" stroke-width="0.2" mask="url(#path-5-outside-3)"/>
<mask id="path-6-outside-4" maskUnits="userSpaceOnUse" x="11.7292" y="11.5157" width="10" height="13" fill="black">
<rect fill="white" x="11.7292" y="11.5157" width="10" height="13"/>
<path d="M17.4002 17.6314V14.4577C18.6497 14.6058 19.5233 15.1703 19.5233 15.683C19.5233 16.026 19.8085 16.304 20.1603 16.304C20.5121 16.304 20.7972 16.026 20.7972 15.683C20.7972 14.4133 19.3493 13.3926 17.4002 13.2081V13.1368C17.4002 12.7938 17.115 12.5157 16.7632 12.5157C16.4114 12.5157 16.1263 12.7938 16.1263 13.1368V13.2081C14.1772 13.3926 12.7292 14.4133 12.7292 15.683C12.7292 17.4964 14.5667 18.1509 16.1263 18.5785V21.7521C14.8767 21.604 14.0032 21.0396 14.0032 20.5269C14.0032 20.1839 13.718 19.9059 13.3662 19.9059C13.0144 19.9059 12.7292 20.1839 12.7292 20.5269C12.7292 21.7965 14.1772 22.8173 16.1263 23.0017V23.0731C16.1263 23.4161 16.4114 23.6941 16.7632 23.6941C17.115 23.6941 17.4002 23.4161 17.4002 23.0731V23.0017C19.3493 22.8173 20.7972 21.7965 20.7972 20.5269C20.7972 18.7134 18.9596 18.059 17.4002 17.6314ZM16.1263 17.2782C14.5575 16.7984 14.0032 16.3624 14.0032 15.683C14.0032 15.1703 14.8767 14.6058 16.1263 14.4577V17.2782ZM17.4002 21.7522V18.9317C18.9689 19.4114 19.5233 19.8475 19.5233 20.527C19.5233 21.0397 18.6496 21.6041 17.4002 21.7522Z"/>
</mask>
<path d="M17.4002 17.6314V14.4577C18.6497 14.6058 19.5233 15.1703 19.5233 15.683C19.5233 16.026 19.8085 16.304 20.1603 16.304C20.5121 16.304 20.7972 16.026 20.7972 15.683C20.7972 14.4133 19.3493 13.3926 17.4002 13.2081V13.1368C17.4002 12.7938 17.115 12.5157 16.7632 12.5157C16.4114 12.5157 16.1263 12.7938 16.1263 13.1368V13.2081C14.1772 13.3926 12.7292 14.4133 12.7292 15.683C12.7292 17.4964 14.5667 18.1509 16.1263 18.5785V21.7521C14.8767 21.604 14.0032 21.0396 14.0032 20.5269C14.0032 20.1839 13.718 19.9059 13.3662 19.9059C13.0144 19.9059 12.7292 20.1839 12.7292 20.5269C12.7292 21.7965 14.1772 22.8173 16.1263 23.0017V23.0731C16.1263 23.4161 16.4114 23.6941 16.7632 23.6941C17.115 23.6941 17.4002 23.4161 17.4002 23.0731V23.0017C19.3493 22.8173 20.7972 21.7965 20.7972 20.5269C20.7972 18.7134 18.9596 18.059 17.4002 17.6314ZM16.1263 17.2782C14.5575 16.7984 14.0032 16.3624 14.0032 15.683C14.0032 15.1703 14.8767 14.6058 16.1263 14.4577V17.2782ZM17.4002 21.7522V18.9317C18.9689 19.4114 19.5233 19.8475 19.5233 20.527C19.5233 21.0397 18.6496 21.6041 17.4002 21.7522Z" fill="white"/>
<path d="M17.4002 17.6314V14.4577C18.6497 14.6058 19.5233 15.1703 19.5233 15.683C19.5233 16.026 19.8085 16.304 20.1603 16.304C20.5121 16.304 20.7972 16.026 20.7972 15.683C20.7972 14.4133 19.3493 13.3926 17.4002 13.2081V13.1368C17.4002 12.7938 17.115 12.5157 16.7632 12.5157C16.4114 12.5157 16.1263 12.7938 16.1263 13.1368V13.2081C14.1772 13.3926 12.7292 14.4133 12.7292 15.683C12.7292 17.4964 14.5667 18.1509 16.1263 18.5785V21.7521C14.8767 21.604 14.0032 21.0396 14.0032 20.5269C14.0032 20.1839 13.718 19.9059 13.3662 19.9059C13.0144 19.9059 12.7292 20.1839 12.7292 20.5269C12.7292 21.7965 14.1772 22.8173 16.1263 23.0017V23.0731C16.1263 23.4161 16.4114 23.6941 16.7632 23.6941C17.115 23.6941 17.4002 23.4161 17.4002 23.0731V23.0017C19.3493 22.8173 20.7972 21.7965 20.7972 20.5269C20.7972 18.7134 18.9596 18.059 17.4002 17.6314ZM16.1263 17.2782C14.5575 16.7984 14.0032 16.3624 14.0032 15.683C14.0032 15.1703 14.8767 14.6058 16.1263 14.4577V17.2782ZM17.4002 21.7522V18.9317C18.9689 19.4114 19.5233 19.8475 19.5233 20.527C19.5233 21.0397 18.6496 21.6041 17.4002 21.7522Z" stroke="white" stroke-width="0.2" mask="url(#path-6-outside-4)"/>
</g>
<g opacity="0.5">
<rect width="1439" height="7498" transform="translate(-882 -4144)" fill="white"/>
<rect x="-880.5" y="-1556.5" width="1436" height="1677" stroke="#FFC700" stroke-width="3"/>
<rect x="-791.5" y="-1546.5" width="1260" height="1650" stroke="#00B2FF" stroke-width="3"/>
</g>
<defs>
<filter id="filter0_d" x="-78" y="-566" width="566" height="569" filterUnits="userSpaceOnUse" color-interpolation-filters="sRGB">
<feFlood flood-opacity="0" result="BackgroundImageFix"/>
<feColorMatrix in="SourceAlpha" type="matrix" values="0 0 0 0 0 0 0 0 0 0 0 0 0 0 0 0 0 0 127 0"/>
<feOffset dy="30"/>
<feGaussianBlur stdDeviation="15"/>
<feColorMatrix type="matrix" values="0 0 0 0 0 0 0 0 0 0 0 0 0 0 0 0 0 0 0.05 0"/>
<feBlend mode="normal" in2="BackgroundImageFix" result="effect1_dropShadow"/>
<feBlend mode="normal" in="SourceGraphic" in2="effect1_dropShadow" result="shape"/>
</filter>
<filter id="filter1_d" x="-35.5" y="-28.5576" width="112" height="112" filterUnits="userSpaceOnUse" color-interpolation-filters="sRGB">
<feFlood flood-opacity="0" result="BackgroundImageFix"/>
<feColorMatrix in="SourceAlpha" type="matrix" values="0 0 0 0 0 0 0 0 0 0 0 0 0 0 0 0 0 0 127 0"/>
<feOffset dy="10"/>
<feGaussianBlur stdDeviation="10"/>
<feColorMatrix type="matrix" values="0 0 0 0 0.929412 0 0 0 0 0.752941 0 0 0 0 0.470588 0 0 0 0.2 0"/>
<feBlend mode="normal" in2="BackgroundImageFix" result="effect1_dropShadow"/>
<feBlend mode="normal" in="SourceGraphic" in2="effect1_dropShadow" result="shape"/>
</filter>
<clipPath id="clip0">
<rect width="1440" height="7499" fill="white" transform="translate(-882 -4145)"/>
</clipPath>
</defs>
</svg>
